<svg width="83" height="61" viewBox="0 0 83 61" fill="none" xmlns="http://www.w3.org/2000/svg">
    <path d="M52.8182 0C60.8229 0 68.4998 3.21338 74.16 8.93324C79.8201 14.6531 83 22.4109 83 30.5C83 38.5891 79.8201 46.3469 74.16 52.0668C68.4998 57.7866 60.8229 61 52.8182 61C44.8135 61 37.1366 57.7866 31.4764 52.0668C25.8162 46.3469 22.6364 38.5891 22.6364 30.5C22.6364 22.4109 25.8162 14.6531 31.4764 8.93324C37.1366 3.21338 44.8135 0 52.8182 0ZM52.8182 7.625C46.8146 7.625 41.057 10.035 36.8119 14.3249C32.5667 18.6148 30.1818 24.4332 30.1818 30.5C30.1818 36.5668 32.5667 42.3852 36.8119 46.6751C41.057 50.965 46.8146 53.375 52.8182 53.375C58.8217 53.375 64.5794 50.965 68.8245 46.6751C73.0697 42.3852 75.4545 36.5668 75.4545 30.5C75.4545 24.4332 73.0697 18.6148 68.8245 14.3249C64.5794 10.035 58.8217 7.625 52.8182 7.625ZM49.0455 15.25H54.7045V29.6612L63.495 38.5444L59.4959 42.5856L49.0455 32.025V15.25ZM3.77273 53.375C2.77214 53.375 1.81253 52.9733 1.10501 52.2583C0.397482 51.5434 0 50.5736 0 49.5625C0 48.5514 0.397482 47.5816 1.10501 46.8667C1.81253 46.1517 2.77214 45.75 3.77273 45.75H18.2223C19.3918 48.4569 20.9009 51.0112 22.6364 53.375H3.77273ZM7.54545 34.3125C6.54486 34.3125 5.58526 33.9108 4.87773 33.1958C4.17021 32.4809 3.77273 31.5111 3.77273 30.5C3.77273 29.4889 4.17021 28.5191 4.87773 27.8042C5.58526 27.0892 6.54486 26.6875 7.54545 26.6875H15.2795L15.0909 30.5L15.2795 34.3125H7.54545ZM11.3182 15.25C10.3176 15.25 9.35798 14.8483 8.65046 14.1333C7.94294 13.4184 7.54545 12.4486 7.54545 11.4375C7.54545 10.4264 7.94294 9.45664 8.65046 8.74166C9.35798 8.02667 10.3176 7.625 11.3182 7.625H22.6364C20.9009 9.98875 19.3918 12.5431 18.2223 15.25H11.3182Z" fill="#E5F5FD"/>
</svg>
    