<svg width="34" height="34" viewBox="0 0 34 34" fill="none" xmlns="http://www.w3.org/2000/svg">
    <path d="M17.0007 0.333313C14.812 0.333313 12.6447 0.764409 10.6226 1.60199C8.6005 2.43957 6.76318 3.66722 5.21554 5.21487C2.08993 8.34047 0.333984 12.5797 0.333984 17C0.333984 21.4203 2.08993 25.6595 5.21554 28.7851C6.76318 30.3327 8.6005 31.5604 10.6226 32.398C12.6447 33.2356 14.812 33.6666 17.0007 33.6666C21.4209 33.6666 25.6602 31.9107 28.7858 28.7851C31.9114 25.6595 33.6673 21.4203 33.6673 17C33.6673 14.8113 33.2362 12.644 32.3986 10.6219C31.5611 8.59983 30.3334 6.76251 28.7858 5.21487C27.2381 3.66722 25.4008 2.43957 23.3787 1.60199C21.3566 0.764409 19.1893 0.333313 17.0007 0.333313ZM24.0007 24L15.334 18.6666V8.66665H17.834V17.3333L25.334 21.8333L24.0007 24Z" fill="#829FAD"/>
</svg>
    