<svg width="45" height="72" viewBox="0 0 45 72" fill="none" xmlns="http://www.w3.org/2000/svg">
    <path d="M22.4992 0C24.9883 0 26.9992 2.01094 26.9992 4.5V9.52031C27.2242 9.54844 27.4352 9.57656 27.6602 9.61875C27.7164 9.63281 27.7586 9.63281 27.8149 9.64687L34.5649 10.8844C37.0117 11.3344 38.6289 13.6828 38.1789 16.1156C37.7289 18.5484 35.3805 20.1797 32.9477 19.7297L26.268 18.5063C21.8664 17.8594 17.9852 18.2953 15.257 19.3781C12.5289 20.4609 11.432 21.9516 11.1789 23.3297C10.8977 24.8344 11.1086 25.6781 11.3477 26.1984C11.6008 26.7469 12.1211 27.3656 13.1477 28.0547C15.4399 29.5594 18.9555 30.5438 23.5117 31.7531L23.9195 31.8656C27.9414 32.9344 32.8633 34.2281 36.5195 36.6187C38.5164 37.9266 40.4008 39.6984 41.568 42.1734C42.7633 44.6906 43.0164 47.5031 42.468 50.4984C41.4977 55.8422 37.8133 59.4141 33.243 61.2844C31.3164 62.0719 29.2211 62.5781 26.9992 62.8312V67.5C26.9992 69.9891 24.9883 72 22.4992 72C20.0102 72 17.9992 69.9891 17.9992 67.5V62.5922C17.943 62.5781 17.8727 62.5781 17.8164 62.5641H17.7883C14.357 62.0297 8.71798 60.5531 4.9211 58.8656C2.65704 57.8531 1.63048 55.1953 2.64298 52.9312C3.65548 50.6672 6.31329 49.6406 8.57735 50.6531C11.5164 51.9609 16.3539 53.2547 19.1524 53.6906C23.6383 54.3516 27.3367 53.9719 29.8399 52.9453C32.2164 51.975 33.2992 50.5688 33.6086 48.8813C33.8758 47.3906 33.6649 46.5328 33.4258 46.0125C33.1586 45.45 32.6383 44.8312 31.5977 44.1422C29.2914 42.6375 25.7617 41.6531 21.1914 40.4438L20.7977 40.3453C16.7899 39.2766 11.868 37.9688 8.21173 35.5781C6.21485 34.2703 4.34454 32.4844 3.17735 30.0094C1.9961 27.4922 1.75704 24.6797 2.31954 21.6844C3.33204 16.3125 7.35391 12.825 11.9242 11.0109C13.7945 10.2656 15.8477 9.75938 17.9992 9.46406V4.5C17.9992 2.01094 20.0102 0 22.4992 0Z" fill="#E5F5FD"/>
</svg>
    