<svg width="55" height="55" viewBox="0 0 55 55" fill="none" xmlns="http://www.w3.org/2000/svg">
    <path d="M7.17188 0.626974C9.0957 -0.0590724 11.1747 -0.185076 13.1673 0.263609C15.1599 0.712293 16.9843 1.71724 18.4284 3.16166C19.8725 4.60608 20.877 6.43066 21.3252 8.42336C21.7735 10.4161 21.647 12.4951 20.9605 14.4187L54.3993 47.8575L47.8565 54.3972L14.4177 20.9616C12.4936 21.648 10.4141 21.7742 8.42107 21.3254C6.42805 20.8766 4.60334 19.8714 3.1591 18.4265C1.71486 16.9816 0.710412 15.1564 0.262536 13.1632C-0.18534 11.17 -0.0582452 9.09057 0.629046 7.16672L7.52338 14.0641C8.39566 14.9066 9.56395 15.3728 10.7766 15.3623C11.9893 15.3517 13.1493 14.8653 14.0068 14.0078C14.8643 13.1503 15.3507 11.9903 15.3612 10.7776C15.3718 9.56496 14.9056 8.39667 14.0631 7.52439L7.17188 0.626974ZM39.1368 6.43289L48.948 0.981557L53.3078 5.34447L47.8565 15.1526L42.4051 16.2441L35.8685 22.7838L31.5055 18.424L38.0453 11.8842L39.1368 6.43289ZM17.3345 30.4151L23.8743 36.9579L8.61179 52.2204C7.77016 53.0541 6.64067 53.5331 5.45625 53.5586C4.27183 53.5841 3.1228 53.1541 2.24611 52.3573C1.36942 51.5604 0.83192 50.4576 0.744459 49.2761C0.656997 48.0947 1.02624 46.9247 1.77605 46.0075L2.07513 45.6776L17.3345 30.4151Z" fill="#E5F5FD"/>
</svg>
    